<svg width="23" height="23" viewBox="0 0 23 23" fill="none" xmlns="http://www.w3.org/2000/svg">
<g clip-path="url(#clip0)">
<path d="M19.3705 5.94227C19.4095 5.62579 19.4298 5.30357 19.4298 4.97658C19.4298 2.22812 17.2017 0 14.4532 0H6.1363C5.61314 0 5.16648 0.377793 5.07969 0.893676L2.01512 19.1084C1.90515 19.762 2.409 20.3576 3.07173 20.3576H6.11343C6.63659 20.3576 7.09165 19.9801 7.1784 19.4642C7.1784 19.4642 7.18347 19.4339 7.19264 19.3795H7.19268L6.7688 21.899C6.67195 22.475 7.116 23 7.70012 23H10.3612C10.8223 23 11.216 22.667 11.2924 22.2123L12.0484 17.7192C12.1787 16.9447 12.8493 16.3775 13.6347 16.3775H14.3337C18.131 16.3775 21.2092 13.2993 21.2092 9.50206C21.2092 8.03271 20.4829 6.73388 19.3705 5.94227Z" fill="#002987"/>
<path d="M19.615 6C19.1391 9.87132 15.8396 12.869 11.8396 12.869H9.51875C8.99491 12.869 8.54251 13.2179 8.4006 13.7112L7.01332 21.9566C6.91642 22.5327 7.36048 23.0577 7.9446 23.0577H10.6056C11.0668 23.0577 11.4605 22.7247 11.5369 22.27L12.2929 17.7769C12.4232 17.0024 13.0938 16.4353 13.8791 16.4353H14.5782C18.3755 16.4353 21.4537 13.357 21.4537 9.55979C21.4537 8.09044 20.7274 6.79161 19.615 6Z" fill="#0085CC"/>
<path d="M9.1182 12.6766H11.4391C15.4391 12.6766 18.7386 9.67888 19.2144 5.80761C18.5007 5.29972 17.6285 5 16.6858 5H10.6281C9.93838 5 9.3495 5.49805 9.23504 6.17817L8 13.5188C8.14191 13.0254 8.59436 12.6766 9.1182 12.6766Z" fill="#00186A"/>
</g>
<defs>
<clipPath id="clip0">
<rect width="23" height="23" fill="white"/>
</clipPath>
</defs>
</svg>
