<svg width="24" height="25" viewBox="0 0 24 25" fill="none" xmlns="http://www.w3.org/2000/svg">
<mask id="mask0" mask-type="alpha" maskUnits="userSpaceOnUse" x="0" y="6" width="24" height="19">
<ellipse cx="12" cy="15.5" rx="12" ry="9.5" fill="#C4C4C4"/>
</mask>
<g mask="url(#mask0)">
<ellipse cx="12" cy="15.5" rx="12" ry="9.5" fill="#E2E2E2"/>
<path fill-rule="evenodd" clip-rule="evenodd" d="M6.44084 19.591C6.04179 19.6981 5.64668 19.8175 5.25394 19.9415C4.15772 20.2889 3.07492 20.6769 2 21.084C4.791 23.5115 8.46687 25 12.5102 25C16.3746 25 19.9101 23.647 22.6522 21.4085C21.2279 20.7657 19.2176 20.1167 19.2176 20.1167C16.8273 19.6706 16.1041 19.1379 16.1041 19.1379C15.3367 18.7981 15.4684 15.5855 15.4684 15.5855C16.6522 15.4362 16.5867 11.9045 16.5867 11.9045C17.4195 12.4149 17.4858 11.3512 17.4858 11.3512C17.5292 10.9471 17.7484 10.2025 17.7484 10.2025C18.5599 7.713 17.3754 8.30839 17.3754 8.30839C18.0331 5.8832 17.7484 3.79857 17.7484 3.79857C17.6064 2.76085 17.112 1.89761 16.22 1.29456C15.918 1.09023 15.5899 0.922634 15.2468 0.793301C14.7799 0.617285 14.2965 0.379282 13.8178 0.251479C13.4274 0.146636 13.026 0.0854128 12.623 0.0471486C12.179 0.00582327 11.7263 -0.0140741 11.2807 0.0111803C10.8635 0.0111803 10.6664 0.266785 10.6664 0.266785C10.6033 0.34714 10.0647 0.445096 9.94084 0.501727C9.72002 0.60198 9.50472 0.714476 9.29415 0.833861C8.75945 1.13921 8.2839 1.53333 7.78627 1.88995C7.39747 2.16852 6.90378 2.35525 6.62617 2.75625C6.38406 3.10675 6.25078 3.52001 6.17507 3.93173C6.08911 4.40315 6.0339 4.96027 6.12854 5.43628C6.23737 5.98958 6.39116 8.45762 6.39116 8.45762C5.51419 8.28773 5.99684 9.54279 5.99684 9.54279C6.17192 9.77697 6.41324 11.0535 6.41324 11.0535C6.63248 12.9047 7.55362 12.1601 7.55362 12.1601C7.39983 15.4362 8.54021 15.6061 8.54021 15.6061C8.69321 17.5209 8.32097 18.6275 8.32097 18.6275C8.04258 19.3361 7.08911 19.4173 6.44084 19.591Z" fill="#8A8A8F"/>
</g>
<path fill-rule="evenodd" clip-rule="evenodd" d="M17.5453 11C17.6253 10.6204 17.7483 10.2025 17.7483 10.2025C18.5598 7.713 17.3753 8.30839 17.3753 8.30839C18.033 5.8832 17.7483 3.79857 17.7483 3.79857C17.6064 2.76085 17.1119 1.89761 16.2199 1.29456C15.9179 1.09023 15.5898 0.922634 15.2468 0.793301C15.0893 0.733931 14.9299 0.667509 14.7695 0.600643C14.4543 0.469267 14.135 0.336175 13.8177 0.251479C13.4274 0.146636 13.0259 0.0854128 12.6229 0.0471486C12.1789 0.00582327 11.7263 -0.0140741 11.2807 0.0111803C10.8635 0.0111803 10.6663 0.266785 10.6663 0.266785C10.6274 0.316294 10.408 0.372484 10.2164 0.421574C10.097 0.452159 9.9883 0.479988 9.94077 0.501727C9.71995 0.60198 9.50465 0.714476 9.29408 0.833861C8.91381 1.05102 8.56345 1.31308 8.21379 1.57463C8.0718 1.68083 7.92992 1.78696 7.7862 1.88995C7.66556 1.97638 7.53483 2.05397 7.40359 2.13187C7.11184 2.30502 6.81757 2.47967 6.6261 2.75625C6.38399 3.10675 6.25071 3.52001 6.175 3.93173C6.08904 4.40315 6.03383 4.96027 6.12847 5.43628C6.2373 5.98958 6.39109 8.45762 6.39109 8.45762C5.51412 8.28773 5.99677 9.54279 5.99677 9.54279C6.15034 9.74821 6.3549 10.7556 6.40282 11H17.5453Z" fill="#8A8A8F"/>
</svg>
