<svg width="203" height="22" viewBox="0 0 203 22" fill="none" xmlns="http://www.w3.org/2000/svg">
<path d="M0 21.33H3.72L5.91 15.96H14.88L17.07 21.33H21L12.12 0.27H8.88L0 21.33ZM10.41 5.04L13.47 12.51H7.32L10.41 5.04Z" fill="#2D9CEE"/>
<path d="M24.1453 21.33H24.5653C26.4853 21.33 28.8253 21.39 30.0853 21.39C38.0953 21.39 42.1153 16.53 42.1153 10.62C42.1153 5.07 38.7253 0.24 30.3253 0.24C28.7953 0.24 25.7953 0.329999 24.5353 0.329999H24.1453V21.33ZM30.2653 3.69C35.2753 3.69 38.2153 6.39 38.2153 10.62C38.2153 15.06 35.2753 17.94 30.2053 17.94C29.6953 17.94 28.8553 17.94 27.8353 17.88V3.78C28.6753 3.72 29.3953 3.69 30.2653 3.69Z" fill="#2D9CEE"/>
<path d="M62.2448 0.329999H58.5548L52.5848 15.9L46.3448 0.329999H42.4148L51.0548 21.39H53.8448L62.2448 0.329999Z" fill="#2D9CEE"/>
<path d="M58.4688 21.33H62.1888L64.3788 15.96H73.3487L75.5387 21.33H79.4688L70.5888 0.27H67.3487L58.4688 21.33ZM68.8788 5.04L71.9388 12.51H65.7887L68.8788 5.04Z" fill="#2D9CEE"/>
<path d="M100.554 21.33V0.329999H97.1041V14.94L85.5541 0.329999H82.6141V21.33H86.0641V6.78L97.6141 21.33H100.554Z" fill="#2D9CEE"/>
<path d="M103.764 3.78H110.574V21.33H114.264V3.78H121.074V0.329999H103.764V3.78Z" fill="#2D9CEE"/>
<path d="M132.704 15.75C132.704 17.34 131.384 18.21 129.644 18.21C128.024 18.21 126.044 17.43 124.814 15.84L122.714 18.36C123.734 20.49 126.884 21.66 129.584 21.66C133.514 21.66 136.604 19.26 136.604 15.72C136.604 8.73 127.094 10.11 127.094 5.76C127.094 4.38 128.204 3.45 130.034 3.45C131.714 3.45 132.734 4.02 133.754 5.01L135.734 2.25C134.474 0.869999 132.314 0 129.734 0C125.654 0 123.194 2.64 123.194 5.79C123.194 12.63 132.704 11.61 132.704 15.75Z" fill="#2D9CEE"/>
<path d="M154.146 21.33H157.806V0.329999H154.146V8.91H144.546V0.329999H140.856V21.33H144.546V12.36H154.146V21.33Z" fill="#2D9CEE"/>
<path d="M162.06 10.83C162.06 17.37 166.74 21.66 172.98 21.66C179.22 21.66 183.93 17.13 183.93 10.83C183.93 4.29 179.22 0 172.98 0C166.53 0 162.06 4.74 162.06 10.83ZM165.96 10.83C165.96 6.48 168.96 3.45 172.98 3.45C176.94 3.45 180.03 6.48 180.03 10.83C180.03 14.97 177.39 18.21 172.98 18.21C169.05 18.21 165.96 15.03 165.96 10.83Z" fill="#2D9CEE"/>
<path d="M191.89 21.33V13.74C192.79 13.83 193.99 13.83 194.62 13.83C199.63 13.83 202.3 10.59 202.3 7.02C202.3 3.57 200.35 0.27 194.17 0.27C192.7 0.27 189.37 0.329999 188.2 0.329999V21.33H191.89ZM194.53 3.72C197.05 3.72 198.4 4.8 198.4 6.99C198.4 9.33 196.69 10.38 194.5 10.38C193.66 10.38 192.76 10.32 191.89 10.23V3.78C192.88 3.75 193.78 3.72 194.53 3.72Z" fill="#2D9CEE"/>
</svg>
