<svg width="26" height="26" viewBox="0 0 26 26" fill="none" xmlns="http://www.w3.org/2000/svg">
<circle cx="13" cy="13" r="11.5" fill="#2D9CEE" stroke="white" stroke-width="3"/>
<path d="M10.3425 17C10.2625 17 10.1945 16.976 10.1385 16.928C10.0905 16.872 10.0665 16.804 10.0665 16.724V16.34C10.0665 16.156 10.1665 15.98 10.3665 15.812L12.9105 13.268C13.5265 12.756 13.9505 12.34 14.1825 12.02C14.4145 11.692 14.5305 11.348 14.5305 10.988C14.5305 10.524 14.3985 10.16 14.1345 9.896C13.8785 9.632 13.5025 9.5 13.0065 9.5C12.5425 9.5 12.1705 9.64 11.8905 9.92C11.6105 10.192 11.4385 10.556 11.3745 11.012C11.3585 11.108 11.3185 11.18 11.2545 11.228C11.1985 11.268 11.1345 11.288 11.0625 11.288H10.4385C10.3665 11.288 10.3065 11.268 10.2585 11.228C10.2105 11.18 10.1865 11.124 10.1865 11.06C10.2025 10.628 10.3185 10.216 10.5345 9.824C10.7505 9.424 11.0665 9.1 11.4825 8.852C11.9065 8.596 12.4145 8.468 13.0065 8.468C13.9105 8.468 14.5905 8.704 15.0465 9.176C15.5105 9.64 15.7425 10.232 15.7425 10.952C15.7425 11.456 15.6145 11.912 15.3585 12.32C15.1105 12.72 14.7225 13.152 14.1945 13.616L11.8905 15.956H15.6345C15.7225 15.956 15.7905 15.984 15.8385 16.04C15.8945 16.088 15.9225 16.152 15.9225 16.232V16.724C15.9225 16.804 15.8945 16.872 15.8385 16.928C15.7825 16.976 15.7145 17 15.6345 17H10.3425Z" fill="white"/>
</svg>
