<svg width="24" height="24" viewBox="0 0 24 24" fill="none" xmlns="http://www.w3.org/2000/svg">
<path d="M20.7478 12.0011H3.24986C2.89833 12.0011 2.60214 11.8807 2.36129 11.6399C2.12043 11.399 2 11.1061 2 10.7611C2 10.416 2.12043 10.1199 2.36129 9.87249C2.60214 9.62512 2.89833 9.50144 3.24986 9.50144H4.34348C4.60387 9.89202 4.93912 10.198 5.34922 10.4193C5.75933 10.6406 6.20525 10.7513 6.68696 10.7513C7.16868 10.7513 7.61459 10.6406 8.0247 10.4193C8.43481 10.198 8.77005 9.89202 9.03044 9.50144H14.9673C15.2276 9.89202 15.5629 10.198 15.973 10.4193C16.3831 10.6406 16.829 10.7513 17.3107 10.7513C17.7925 10.7513 18.2384 10.6406 18.6485 10.4193C19.0586 10.198 19.3938 9.89202 19.6542 9.50144H20.7478C21.0994 9.50144 21.3956 9.62512 21.6364 9.87249C21.8773 10.1199 21.9977 10.416 21.9977 10.7611C21.9977 11.1061 21.874 11.399 21.6266 11.6399C21.3793 11.8807 21.0863 12.0011 20.7478 12.0011ZM17.7404 9.38426C17.493 9.52747 17.2326 9.56002 16.9592 9.48191C16.6858 9.40379 16.4775 9.24105 16.3343 8.99368L13.3854 3.56462C13.2422 3.31725 13.2064 3.05361 13.278 2.77369C13.3496 2.49378 13.5091 2.28221 13.7565 2.139C14.0038 1.99579 14.2642 1.96324 14.5376 2.04136C14.811 2.11947 15.0193 2.28221 15.1625 2.52958L18.1114 7.95864C18.2546 8.20601 18.2904 8.46965 18.2188 8.74957C18.1472 9.02948 17.9877 9.24105 17.7404 9.38426ZM7.66341 8.99368C7.5202 9.24105 7.31189 9.40379 7.03848 9.48191C6.76508 9.56002 6.50469 9.52747 6.25732 9.38426C6.00996 9.24105 5.85047 9.02948 5.77886 8.74957C5.70726 8.46965 5.74306 8.20601 5.88627 7.95864L8.83515 2.52958C8.97836 2.28221 9.18667 2.11947 9.46008 2.04136C9.73349 1.96324 9.99387 1.99579 10.2412 2.139C10.4886 2.28221 10.6481 2.49378 10.7197 2.77369C10.7913 3.05361 10.7555 3.31725 10.6123 3.56462L7.66341 8.99368ZM19.498 20.7501C19.3938 21.2709 19.2018 21.6094 18.9219 21.7657C18.642 21.9219 18.2156 22 17.6427 22H6.43308C5.84721 22 5.40456 21.9219 5.10511 21.7657C4.80567 21.6094 4.60387 21.2709 4.49971 20.7501L3.24986 13.251H20.7478L19.498 20.7501ZM16.3733 17.0006H11.3739C11.2047 17.0006 11.0582 17.0624 10.9345 17.1861C10.8108 17.3098 10.749 17.4563 10.749 17.6255C10.749 17.7948 10.8108 17.9412 10.9345 18.0649C11.0582 18.1886 11.2047 18.2504 11.3739 18.2504H16.3733C16.5426 18.2504 16.6891 18.1886 16.8127 18.0649C16.9364 17.9412 16.9983 17.7948 16.9983 17.6255C16.9983 17.4563 16.9364 17.3098 16.8127 17.1861C16.6891 17.0624 16.5426 17.0006 16.3733 17.0006Z" fill="#2D9CEE"/>
</svg>
