<svg width="36" height="22" viewBox="0 0 36 22" fill="none" xmlns="http://www.w3.org/2000/svg">
<g clip-path="url(#clip0)">
<path d="M34.9176 18V17.5762H34.8075L34.68 17.8673L34.5533 17.5762H34.4425V18H34.5208V17.6804L34.6399 17.9562H34.7209L34.84 17.6797V18H34.9176ZM34.2188 18V17.6485H34.3601V17.5769H34V17.6485H34.1413V18H34.2188Z" fill="#F79410"/>
<path d="M22.5299 19.1811H13V2H22.5299V19.1811Z" fill="#FF5F00"/>
<path d="M13.4622 11.0732C13.4622 7.58797 15.0889 4.48341 17.622 2.4827C15.7696 1.01967 13.4317 0.146445 10.8909 0.146445C4.87587 0.146445 0 5.03846 0 11.0732C0 17.108 4.87587 22 10.8909 22C13.4317 22 15.7696 21.1268 17.622 19.6638C15.0889 17.6631 13.4622 14.5585 13.4622 11.0732Z" fill="#EB001B"/>
<path d="M35.6227 11.0732C35.6227 17.108 30.7468 22 24.7318 22C22.191 22 19.8531 21.1268 18 19.6638C20.5338 17.6631 22.1605 14.5585 22.1605 11.0732C22.1605 7.58797 20.5338 4.48341 18 2.4827C19.8531 1.01967 22.191 0.146445 24.7318 0.146445C30.7468 0.146445 35.6227 5.03846 35.6227 11.0732Z" fill="#F79E1B"/>
</g>
<defs>
<clipPath id="clip0">
<rect width="35.75" height="22" fill="white"/>
</clipPath>
</defs>
</svg>
