<svg width="58" height="18" viewBox="0 0 58 18" fill="none" xmlns="http://www.w3.org/2000/svg">
<path d="M24.6984 17.4244H20L22.9387 0H27.6368L24.6984 17.4244Z" fill="#00579F"/>
<path d="M42.0938 0.741828C41.1671 0.389269 39.6972 0 37.8797 0C33.24 0 29.9727 2.37257 29.9526 5.76462C29.9141 8.26728 32.2919 9.65731 34.0703 10.4918C35.8881 11.3445 36.506 11.901 36.506 12.6611C36.4875 13.8284 35.0371 14.3665 33.6844 14.3665C31.8086 14.3665 30.8036 14.0891 29.2761 13.4396L28.6575 13.1612L28 17.0726C29.1019 17.5541 31.1322 17.9813 33.24 18C38.1698 18 41.3793 15.6641 41.4173 12.0494C41.4361 10.0658 40.1805 8.54592 37.4736 7.30398C35.8303 6.50668 34.8239 5.96911 34.8239 5.15337C34.8432 4.4118 35.6751 3.65223 37.5301 3.65223C39.0575 3.61502 40.1797 3.96709 41.0299 4.31941L41.4549 4.50443L42.0938 0.741828Z" fill="#00579F"/>
<path d="M48.2692 11.2516C48.6561 10.2506 50.1449 6.37635 50.1449 6.37635C50.1254 6.41356 50.5311 5.35688 50.7631 4.70816L51.0914 6.20956C51.0914 6.20956 51.9812 10.3804 52.1744 11.2516C51.4401 11.2516 49.1972 11.2516 48.2692 11.2516ZM54.0687 0H50.4345C49.3138 0 48.4624 0.314864 47.9788 1.44571L41 17.4242H45.9298C45.9298 17.4242 46.7415 15.2736 46.9159 14.8105C47.4568 14.8105 52.2525 14.8105 52.9483 14.8105C53.0831 15.4222 53.5088 17.4242 53.5088 17.4242H57.8591L54.0687 0Z" fill="#00579F"/>
<path d="M16.5998 0L11.9986 11.8818L11.4958 9.47205C10.6451 6.6915 7.97723 3.67046 5 2.16833L9.21458 17.406H14.183L21.568 0H16.5998Z" fill="#00579F"/>
<path d="M7.63654 0H0.0773337L0 0.352066C5.89668 1.79803 9.80191 5.28348 11.4064 9.47276L9.7631 1.46469C9.49256 0.35182 8.66115 0.0367095 7.63654 0Z" fill="#FAA61A"/>
</svg>
