<svg width="24" height="24" viewBox="0 0 24 24" fill="none" xmlns="http://www.w3.org/2000/svg">
<path d="M5.556 13.8582H19.1058" stroke="#2D9CEE" stroke-width="2" stroke-linecap="round"/>
<path d="M13.7749 8.7749H19.1058" stroke="#2D9CEE" stroke-width="2" stroke-linecap="round"/>
<path d="M5.556 18.7749H19.1058" stroke="#2D9CEE" stroke-width="2" stroke-linecap="round"/>
<path fill-rule="evenodd" clip-rule="evenodd" d="M6 9.99991C6 10.5522 6.44772 10.9999 7 10.9999C7.55228 10.9999 8 10.5522 8 9.99991V7.99991H10.2189C10.7712 7.99991 11.2189 7.55219 11.2189 6.99991C11.2189 6.44762 10.7712 5.99991 10.2189 5.99991H8V3.78101C8 3.22872 7.55228 2.78101 7 2.78101C6.44772 2.78101 6 3.22872 6 3.78101V5.99991H4C3.44772 5.99991 3 6.44762 3 6.99991C3 7.55219 3.44772 7.99991 4 7.99991H6V9.99991Z" fill="#2D9CEE"/>
</svg>
