<svg width="24" height="24" viewBox="0 0 24 24" fill="none" xmlns="http://www.w3.org/2000/svg">
<path d="M20.7478 12.0012H3.24986C2.89833 12.0012 2.60214 11.8807 2.36129 11.6399C2.12043 11.399 2 11.1061 2 10.7611C2 10.4161 2.12043 10.1199 2.36129 9.87252C2.60214 9.62515 2.89833 9.50147 3.24986 9.50147H4.34348C4.60387 9.89205 4.93912 10.198 5.34922 10.4193C5.75933 10.6407 6.20525 10.7513 6.68696 10.7513C7.16868 10.7513 7.61459 10.6407 8.0247 10.4193C8.43481 10.198 8.77005 9.89205 9.03044 9.50147H14.9673C15.2276 9.89205 15.5629 10.198 15.973 10.4193C16.3831 10.6407 16.829 10.7513 17.3107 10.7513C17.7925 10.7513 18.2384 10.6407 18.6485 10.4193C19.0586 10.198 19.3938 9.89205 19.6542 9.50147H20.7478C21.0994 9.50147 21.3956 9.62515 21.6364 9.87252C21.8773 10.1199 21.9977 10.4161 21.9977 10.7611C21.9977 11.1061 21.874 11.399 21.6266 11.6399C21.3793 11.8807 21.0863 12.0012 20.7478 12.0012ZM17.7404 9.38429C17.493 9.5275 17.2326 9.56005 16.9592 9.48194C16.6858 9.40382 16.4775 9.24108 16.3343 8.99371L13.3854 3.56465C13.2422 3.31728 13.2064 3.05364 13.278 2.77372C13.3496 2.49381 13.5091 2.28224 13.7565 2.13903C14.0038 1.99582 14.2642 1.96327 14.5376 2.04139C14.811 2.1195 15.0193 2.28224 15.1625 2.52961L18.1114 7.95867C18.2546 8.20604 18.2904 8.46968 18.2188 8.7496C18.1472 9.02952 17.9877 9.24108 17.7404 9.38429ZM7.66341 8.99371C7.5202 9.24108 7.31189 9.40382 7.03848 9.48194C6.76508 9.56005 6.50469 9.5275 6.25732 9.38429C6.00996 9.24108 5.85047 9.02952 5.77886 8.7496C5.70726 8.46968 5.74306 8.20604 5.88627 7.95867L8.83515 2.52961C8.97836 2.28224 9.18667 2.1195 9.46008 2.04139C9.73349 1.96327 9.99387 1.99582 10.2412 2.13903C10.4886 2.28224 10.6481 2.49381 10.7197 2.77372C10.7913 3.05364 10.7555 3.31728 10.6123 3.56465L7.66341 8.99371ZM19.498 20.7502C19.3938 21.2709 19.2018 21.6094 18.9219 21.7657C18.642 21.9219 18.2156 22 17.6427 22H6.43308C5.84721 22 5.40456 21.9219 5.10511 21.7657C4.80567 21.6094 4.60387 21.2709 4.49971 20.7502L3.24986 13.251H20.7478L19.498 20.7502ZM16.3733 17.0006H11.3739C11.2047 17.0006 11.0582 17.0624 10.9345 17.1861C10.8108 17.3098 10.749 17.4563 10.749 17.6255C10.749 17.7948 10.8108 17.9413 10.9345 18.0649C11.0582 18.1886 11.2047 18.2505 11.3739 18.2505H16.3733C16.5426 18.2505 16.6891 18.1886 16.8127 18.0649C16.9364 17.9413 16.9983 17.7948 16.9983 17.6255C16.9983 17.4563 16.9364 17.3098 16.8127 17.1861C16.6891 17.0624 16.5426 17.0006 16.3733 17.0006Z" fill="#2D9CEE"/>
</svg>
