<svg width="34" height="34" viewBox="0 0 34 34" fill="none" xmlns="http://www.w3.org/2000/svg">
<path d="M7.26496 17.0717C5.1339 17.0717 3.4226 16.5138 2.13105 15.398C0.871795 14.2822 0.177588 12.7679 0.048433 10.8551C0.0161443 10.3132 0 9.59587 0 8.70324C0 7.74684 0.0161443 6.98172 0.048433 6.40788C0.177588 4.43132 0.85565 2.8692 2.08262 1.72152C3.30959 0.57384 5.03704 0 7.26496 0C9.49288 0 11.2203 0.57384 12.4473 1.72152C13.7066 2.8692 14.4008 4.43132 14.5299 6.40788C14.5945 7.55556 14.6268 8.32067 14.6268 8.70324C14.6268 9.05392 14.5945 9.77121 14.5299 10.8551C14.4008 12.7679 13.6904 14.2822 12.3989 15.398C11.1396 16.5138 9.4283 17.0717 7.26496 17.0717ZM3.34188 33.7131C3.01899 33.7131 2.76068 33.6334 2.56695 33.474C2.37322 33.2827 2.27635 33.0436 2.27635 32.7567C2.27635 32.5654 2.34093 32.3901 2.47009 32.2307L26.3476 1.14768C26.6059 0.828879 26.8481 0.605719 27.0741 0.478199C27.3001 0.318799 27.623 0.2391 28.0427 0.2391H30.6097C30.9326 0.2391 31.1747 0.33474 31.3362 0.526021C31.5299 0.685421 31.6268 0.908581 31.6268 1.1955C31.6268 1.38678 31.5622 1.56212 31.4331 1.72152L7.55556 32.8045C7.29725 33.1233 7.05508 33.3624 6.82906 33.5218C6.60304 33.6493 6.2963 33.7131 5.90883 33.7131H3.34188ZM7.26496 13.4852C8.20133 13.4852 8.87939 13.2143 9.29915 12.6723C9.75119 12.1303 10.0256 11.4449 10.1225 10.616C10.1871 9.53211 10.2194 8.86263 10.2194 8.60759C10.2194 8.25692 10.1871 7.60338 10.1225 6.64698C10.0579 5.8181 9.79962 5.13268 9.34758 4.59072C8.89554 4.01688 8.20133 3.72996 7.26496 3.72996C6.36087 3.72996 5.68281 4.01688 5.23077 4.59072C4.77873 5.13268 4.52042 5.8181 4.45584 6.64698C4.42355 7.12518 4.40741 7.77872 4.40741 8.60759C4.40741 9.4046 4.42355 10.0741 4.45584 10.616C4.52042 11.413 4.76258 12.0985 5.18234 12.6723C5.63438 13.2143 6.32859 13.4852 7.26496 13.4852ZM26.6382 34C24.5071 34 22.7958 33.4262 21.5043 32.2785C20.245 31.0989 19.5508 29.5368 19.4217 27.5921C19.3894 27.0502 19.3732 26.3329 19.3732 25.4402C19.3732 24.5157 19.3894 23.7665 19.4217 23.1927C19.5508 21.2161 20.2289 19.654 21.4558 18.5063C22.6828 17.3587 24.4103 16.7848 26.6382 16.7848C28.8984 16.7848 30.642 17.3587 31.8689 18.5063C33.0959 19.654 33.774 21.2161 33.9031 23.1927C33.9677 24.3404 34 25.0895 34 25.4402C34 25.7909 33.9677 26.5082 33.9031 27.5921C33.774 29.5368 33.0636 31.0989 31.7721 32.2785C30.5128 33.4262 28.8015 34 26.6382 34ZM26.6382 30.27C27.6068 30.27 28.301 29.9991 28.7208 29.4571C29.1728 28.8833 29.4312 28.1978 29.4957 27.4008C29.5603 26.3169 29.5926 25.6315 29.5926 25.3446C29.5926 25.0258 29.5603 24.3882 29.4957 23.4318C29.4312 22.6029 29.1728 21.9175 28.7208 21.3755C28.2688 20.8017 27.5746 20.5148 26.6382 20.5148C25.7341 20.5148 25.056 20.8017 24.604 21.3755C24.1519 21.9175 23.8936 22.6029 23.8291 23.4318C23.7968 23.91 23.7806 24.5476 23.7806 25.3446C23.7806 26.1735 23.7968 26.8589 23.8291 27.4008C23.8936 28.1978 24.1358 28.8833 24.5556 29.4571C25.0076 29.9991 25.7018 30.27 26.6382 30.27Z" fill="#2D9CEE"/>
</svg>
