<svg width="48" height="48" viewBox="0 0 48 48" fill="none" xmlns="http://www.w3.org/2000/svg">
<circle opacity="0.8" r="24" transform="matrix(-1 0 0 1 24 24)" fill="white"/>
<path d="M26.2929 17.2929C25.9024 17.6834 25.9024 18.3166 26.2929 18.7071L30.5858 23H16C15.4477 23 15 23.4477 15 24C15 24.5523 15.4477 25 16 25H30.5858L26.2929 29.2929C25.9024 29.6834 25.9024 30.3166 26.2929 30.7071C26.6834 31.0976 27.3166 31.0976 27.7071 30.7071L33.7071 24.7071C34.0976 24.3166 34.0976 23.6834 33.7071 23.2929L27.7071 17.2929C27.3166 16.9024 26.6834 16.9024 26.2929 17.2929Z" fill="#2D9CEE"/>
</svg>
